<svg width="11" height="15" viewBox="0 0 11 15" fill="none" xmlns="http://www.w3.org/2000/svg">
<path d="M5.313 0C2.37567 0 0 2.3475 0 5.25C0 9.1875 5.313 15 5.313 15C5.313 15 10.626 9.1875 10.626 5.25C10.626 2.3475 8.25033 0 5.313 0ZM5.313 7.125C4.80975 7.125 4.32712 6.92746 3.97127 6.57583C3.61541 6.22419 3.4155 5.74728 3.4155 5.25C3.4155 4.75272 3.61541 4.27581 3.97127 3.92417C4.32712 3.57254 4.80975 3.375 5.313 3.375C5.81625 3.375 6.29888 3.57254 6.65474 3.92417C7.01059 4.27581 7.2105 4.75272 7.2105 5.25C7.2105 5.74728 7.01059 6.22419 6.65474 6.57583C6.29888 6.92746 5.81625 7.125 5.313 7.125Z" fill="#C0363F"/>
</svg>
